<svg xmlns="http://www.w3.org/2000/svg" viewBox="0 0 900 596" font-family="'Cascadia Code','Consolas','SF Mono',monospace" font-size="14">
  <style>
    text{white-space:pre}
    .b{fill:#569cd6}.y{fill:#dcdcaa}.g{fill:#4ec9b0}.d{fill:#6a737d}.w{fill:#d4d4d4}
    .c{fill:#4fc1ff}.ok{fill:#6a9955}.warn{fill:#e2b340}
  </style>
  <rect x="0" y="0" width="900" height="596" rx="10" fill="#1e1e1e"/>
  <rect x="0" y="0" width="900" height="30" rx="10" fill="#323233"/>
  <rect x="0" y="20" width="900" height="10" fill="#323233"/>
  <circle cx="20" cy="15" r="6" fill="#ff5f56"/><circle cx="40" cy="15" r="6" fill="#ffbd2e"/><circle cx="60" cy="15" r="6" fill="#27c93f"/>
  <text x="450" y="20" text-anchor="middle" class="d">tidysync run home-sync</text>
  <g transform="translate(20,0)">
    <text x="0" y="58"><tspan class="g">PS&gt;</tspan><tspan class="w"> tidysync run home-sync</tspan></text>
    <text x="0" y="92"  class="d">  ---------------------------------------------</text>
    <text x="0" y="114" class="w">  pair    : home-sync</text>
    <text x="0" y="136" class="w">  sync    : gdrive &lt;-&gt; onedrive   (two-way)</text>
    <text x="0" y="158" class="w">  clouds  : gdrive=gdrive:  onedrive=onedrive:</text>
    <text x="0" y="180" class="w">  scope   : folders</text>
    <text x="0" y="202" class="w">  folders : Documents, Photos</text>
    <text x="0" y="224" class="w">  since   : 60d</text>
    <text x="0" y="246" class="d">  ---------------------------------------------</text>
    <text x="0" y="268" class="w">Proceed with this configuration? [Y/n]: y</text>
    <text x="0" y="302" class="c">[L-&gt;R] Scanning gdrive:Documents for changes since 60d ...</text>
    <text x="0" y="324" class="w">  18 changed/new file(s); copying gdrive: -&gt; onedrive: ...</text>
    <text x="0" y="346" class="ok">Transferred:   142.6 MiB / 142.6 MiB, 100%, 11.2 MiB/s, ETA 0s</text>
    <text x="0" y="368" class="ok">Transferred:        12 / 12, 100%</text>
    <text x="0" y="390" class="d">Elapsed time:        13.2s</text>
    <text x="0" y="424" class="c">[R-&gt;L] Scanning onedrive:Documents for changes since 60d ...</text>
    <text x="0" y="446" class="w">  6 changed/new file(s); copying onedrive: -&gt; gdrive: ...</text>
    <text x="0" y="468" class="ok">Transferred:    9.4 MiB / 9.4 MiB, 100%, 4.1 MiB/s, ETA 0s</text>
    <text x="0" y="514" class="w">home-sync: created=15 updated=3 skipped=44 <tspan class="warn">conflicts=1</tspan> errors=0 bytes=153 MB</text>
    <text x="0" y="536" class="d">  report: reports\home-sync_20260626_2210.html</text>
  </g>
</svg>
