<svg xmlns="http://www.w3.org/2000/svg" viewBox="0 0 900 540" font-family="Segoe UI,Arial,sans-serif">
  <rect x="0" y="0" width="900" height="540" rx="10" fill="#ffffff" stroke="#e3e6ea"/>
  <!-- browser chrome -->
  <rect x="0" y="0" width="900" height="34" rx="10" fill="#f1f3f5"/>
  <rect x="0" y="24" width="900" height="10" fill="#f1f3f5"/>
  <circle cx="20" cy="17" r="6" fill="#ff5f56"/><circle cx="40" cy="17" r="6" fill="#ffbd2e"/><circle cx="60" cy="17" r="6" fill="#27c93f"/>
  <rect x="84" y="9" width="700" height="16" rx="8" fill="#ffffff" stroke="#dde1e6"/>
  <text x="96" y="21" font-size="11" fill="#8a9099">reports/home-sync_20260626_2210.html</text>

  <g transform="translate(28,58)">
    <text x="0" y="16" font-size="20" font-weight="700" fill="#1b1b1b">Sync report &#8212; home-sync</text>
    <text x="0" y="40" font-size="12.5" fill="#6b7280">mode two-way &#183; scope folders &#183; since 60d &#183; 2026-06-26 22:10 &#8594; 22:11 (38s)</text>

    <!-- cards -->
    <g transform="translate(0,58)" font-family="Segoe UI,Arial,sans-serif">
      <g><rect x="0"   y="0" width="128" height="60" rx="8" fill="#f4f6f8" stroke="#e0e4e8"/><text x="14" y="34" font-size="22" font-weight="700" fill="#1e7a32">15</text><text x="14" y="50" font-size="10.5" fill="#6b7280">CREATED</text></g>
      <g><rect x="140" y="0" width="128" height="60" rx="8" fill="#f4f6f8" stroke="#e0e4e8"/><text x="154" y="34" font-size="22" font-weight="700" fill="#1b5fb0">3</text><text x="154" y="50" font-size="10.5" fill="#6b7280">UPDATED</text></g>
      <g><rect x="280" y="0" width="128" height="60" rx="8" fill="#f4f6f8" stroke="#e0e4e8"/><text x="294" y="34" font-size="22" font-weight="700" fill="#444">44</text><text x="294" y="50" font-size="10.5" fill="#6b7280">SKIPPED</text></g>
      <g><rect x="420" y="0" width="128" height="60" rx="8" fill="#fdf4e3" stroke="#f0e0c0"/><text x="434" y="34" font-size="22" font-weight="700" fill="#b26a00">1</text><text x="434" y="50" font-size="10.5" fill="#6b7280">CONFLICTS</text></g>
      <g><rect x="560" y="0" width="128" height="60" rx="8" fill="#fdecea" stroke="#f5c6c2"/><text x="574" y="34" font-size="22" font-weight="700" fill="#c0392b">0</text><text x="574" y="50" font-size="10.5" fill="#6b7280">ERRORS</text></g>
      <g><rect x="700" y="0" width="138" height="60" rx="8" fill="#f4f6f8" stroke="#e0e4e8"/><text x="714" y="34" font-size="22" font-weight="700" fill="#1b1b1b">153 MB</text><text x="714" y="50" font-size="10.5" fill="#6b7280">TRANSFERRED</text></g>
    </g>

    <!-- table -->
    <g transform="translate(0,144)" font-size="12.5">
      <rect x="0" y="0" width="838" height="26" fill="#fafafa"/>
      <text x="10"  y="17" font-weight="600" fill="#444">File</text>
      <text x="430" y="17" font-weight="600" fill="#444">Direction</text>
      <text x="540" y="17" font-weight="600" fill="#444">Action</text>
      <text x="760" y="17" font-weight="600" fill="#444">Size</text>

      <g fill="#1b1b1b">
        <text x="10" y="48">Documents/Invoices/2026-Q2.pdf</text>
        <text x="430" y="48" fill="#555">L&#8594;R</text>
        <rect x="540" y="36" width="58" height="17" rx="9" fill="#e3f4e4"/><text x="548" y="48" font-size="11" fill="#1e7a32">created</text>
        <text x="760" y="48" fill="#555">2.1 MB</text>

        <text x="10" y="78">Photos/Trip/IMG_4821.jpg</text>
        <text x="430" y="78" fill="#555">L&#8594;R</text>
        <rect x="540" y="66" width="58" height="17" rx="9" fill="#e3f4e4"/><text x="548" y="78" font-size="11" fill="#1e7a32">created</text>
        <text x="760" y="78" fill="#555">4.8 MB</text>

        <text x="10" y="108">Documents/Notes/roadmap.docx</text>
        <text x="430" y="108" fill="#555">R&#8594;L</text>
        <rect x="540" y="96" width="58" height="17" rx="9" fill="#e3edfb"/><text x="548" y="108" font-size="11" fill="#1b5fb0">updated</text>
        <text x="760" y="108" fill="#555">86 KB</text>

        <text x="10" y="138">Documents/Budget.xlsx</text>
        <text x="430" y="138" fill="#555">L&#8594;R</text>
        <rect x="540" y="126" width="58" height="17" rx="9" fill="#e3edfb"/><text x="548" y="138" font-size="11" fill="#1b5fb0">updated</text>
        <rect x="606" y="126" width="138" height="17" rx="9" fill="#fdeccf"/><text x="614" y="138" font-size="11" fill="#9a5b00">conflict&#8594;newer-wins</text>
        <text x="760" y="138" fill="#555">altered</text>

        <text x="10" y="168" fill="#888">Documents/Manual.pdf</text>
        <text x="430" y="168" fill="#555">L&#8594;R</text>
        <rect x="540" y="156" width="108" height="17" rx="9" fill="#eee"/><text x="548" y="168" font-size="11" fill="#666">skipped-identical</text>
        <text x="760" y="168" fill="#888">1.0 MB</text>
      </g>
      <line x1="0" y1="58" x2="838" y2="58" stroke="#eee"/><line x1="0" y1="88" x2="838" y2="88" stroke="#eee"/>
      <line x1="0" y1="118" x2="838" y2="118" stroke="#eee"/><line x1="0" y1="148" x2="838" y2="148" stroke="#eee"/>
    </g>
  </g>
</svg>
